<svg width="16" height="16" viewBox="0 0 16 16" fill="none" xmlns="http://www.w3.org/2000/svg">
<path d="M3 2.50012L13 13.5001" stroke="#4F5665" stroke-linecap="round" stroke-linejoin="round"/>
<path d="M9.68155 9.84999C9.19092 10.2959 8.54325 10.5287 7.88099 10.4972C7.21874 10.4656 6.59614 10.1723 6.15016 9.68167C5.70417 9.19109 5.47132 8.54344 5.50283 7.88118C5.53433 7.21892 5.82762 6.5963 6.31816 6.15027" stroke="#4F5665" stroke-linecap="round" stroke-linejoin="round"/>
<path d="M4.62465 4.28723C2.07657 5.57758 1 8.00013 1 8.00013C1 8.00013 3 12.4996 8 12.4996C9.1715 12.509 10.3284 12.2391 11.3748 11.7125" stroke="#4F5665" stroke-linecap="round" stroke-linejoin="round"/>
<path d="M13.0383 10.5688C14.4009 9.34839 15.0002 8.00013 15.0002 8.00013C15.0002 8.00013 13.0002 3.49964 8.00016 3.49964C7.56711 3.49894 7.13475 3.53414 6.70752 3.6049" stroke="#4F5665" stroke-linecap="round" stroke-linejoin="round"/>
<path d="M8.4707 5.54431C9.00206 5.64634 9.48601 5.91791 9.84997 6.31827C10.2139 6.71863 10.4383 7.22621 10.4893 7.76486" stroke="#4F5665" stroke-linecap="round" stroke-linejoin="round"/>
</svg>
