<svg width="140" height="18" viewBox="0 0 140 18" fill="none" xmlns="http://www.w3.org/2000/svg">
<path d="M12.8059 7.13128L8.83873 6.55472L7.06529 2.95941C7.01685 2.86097 6.93716 2.78128 6.83873 2.73284C6.59185 2.61097 6.29185 2.71253 6.16841 2.95941L4.39498 6.55472L0.427788 7.13128C0.318413 7.14691 0.218413 7.19847 0.141851 7.27659C0.0492908 7.37173 -0.00171392 7.49972 4.3978e-05 7.63244C0.00180188 7.76516 0.0561785 7.89176 0.151226 7.98441L3.02154 10.7828L2.34341 14.7344C2.32751 14.8263 2.33768 14.9209 2.37278 15.0073C2.40787 15.0937 2.46648 15.1686 2.54196 15.2234C2.61744 15.2783 2.70677 15.3108 2.79982 15.3175C2.89287 15.3241 2.98592 15.3045 3.06841 15.261L6.61685 13.3953L10.1653 15.261C10.2622 15.3125 10.3747 15.3297 10.4825 15.311C10.7544 15.2641 10.9372 15.0063 10.8903 14.7344L10.2122 10.7828L13.0825 7.98441C13.1606 7.90784 13.2122 7.80784 13.2278 7.69847C13.27 7.42503 13.0794 7.17191 12.8059 7.13128Z" fill="#FF8906"/>
<path d="M36.0396 7.13128L32.0724 6.55472L30.2989 2.95941C30.2505 2.86097 30.1708 2.78128 30.0724 2.73284C29.8255 2.61097 29.5255 2.71253 29.4021 2.95941L27.6286 6.55472L23.6614 7.13128C23.5521 7.14691 23.4521 7.19847 23.3755 7.27659C23.2829 7.37173 23.2319 7.49972 23.2337 7.63244C23.2354 7.76516 23.2898 7.89176 23.3849 7.98441L26.2552 10.7828L25.5771 14.7344C25.5612 14.8263 25.5713 14.9209 25.6064 15.0073C25.6415 15.0937 25.7001 15.1686 25.7756 15.2234C25.8511 15.2783 25.9404 15.3108 26.0335 15.3175C26.1265 15.3241 26.2196 15.3045 26.3021 15.261L29.8505 13.3953L33.3989 15.261C33.4958 15.3125 33.6083 15.3297 33.7161 15.311C33.988 15.2641 34.1708 15.0063 34.1239 14.7344L33.4458 10.7828L36.3161 7.98441C36.3942 7.90784 36.4458 7.80784 36.4614 7.69847C36.5036 7.42503 36.313 7.17191 36.0396 7.13128Z" fill="#FF8906"/>
<path d="M59.2732 7.13128L55.306 6.55472L53.5326 2.95941C53.4841 2.86097 53.4044 2.78128 53.306 2.73284C53.0591 2.61097 52.7591 2.71253 52.6357 2.95941L50.8623 6.55472L46.8951 7.13128C46.7857 7.14691 46.6857 7.19847 46.6091 7.27659C46.5166 7.37173 46.4656 7.49972 46.4673 7.63244C46.4691 7.76516 46.5235 7.89176 46.6185 7.98441L49.4888 10.7828L48.8107 14.7344C48.7948 14.8263 48.805 14.9209 48.8401 15.0073C48.8752 15.0937 48.9338 15.1686 49.0092 15.2234C49.0847 15.2783 49.1741 15.3108 49.2671 15.3175C49.3602 15.3241 49.4532 15.3045 49.5357 15.261L53.0841 13.3953L56.6326 15.261C56.7294 15.3125 56.8419 15.3297 56.9498 15.311C57.2216 15.2641 57.4044 15.0063 57.3576 14.7344L56.6794 10.7828L59.5498 7.98441C59.6279 7.90784 59.6794 7.80784 59.6951 7.69847C59.7373 7.42503 59.5466 7.17191 59.2732 7.13128Z" fill="#FF8906"/>
<path d="M82.5068 7.13128L78.5397 6.55472L76.7662 2.95941C76.7178 2.86097 76.6381 2.78128 76.5397 2.73284C76.2928 2.61097 75.9928 2.71253 75.8693 2.95941L74.0959 6.55472L70.1287 7.13128C70.0193 7.14691 69.9193 7.19847 69.8428 7.27659C69.7502 7.37173 69.6992 7.49972 69.701 7.63244C69.7027 7.76516 69.7571 7.89176 69.8522 7.98441L72.7225 10.7828L72.0443 14.7344C72.0284 14.8263 72.0386 14.9209 72.0737 15.0073C72.1088 15.0937 72.1674 15.1686 72.2429 15.2234C72.3184 15.2783 72.4077 15.3108 72.5007 15.3175C72.5938 15.3241 72.6868 15.3045 72.7693 15.261L76.3178 13.3953L79.8662 15.261C79.9631 15.3125 80.0756 15.3297 80.1834 15.311C80.4553 15.2641 80.6381 15.0063 80.5912 14.7344L79.9131 10.7828L82.7834 7.98441C82.8615 7.90784 82.9131 7.80784 82.9287 7.69847C82.9709 7.42503 82.7803 7.17191 82.5068 7.13128Z" fill="#FF8906"/>
<path d="M105.74 7.13128L101.773 6.55472L99.9999 2.95941C99.9514 2.86097 99.8717 2.78128 99.7733 2.73284C99.5264 2.61097 99.2264 2.71253 99.103 2.95941L97.3295 6.55472L93.3624 7.13128C93.253 7.14691 93.153 7.19847 93.0764 7.27659C92.9839 7.37173 92.9329 7.49972 92.9346 7.63244C92.9364 7.76516 92.9907 7.89176 93.0858 7.98441L95.9561 10.7828L95.278 14.7344C95.2621 14.8263 95.2723 14.9209 95.3073 15.0073C95.3424 15.0937 95.401 15.1686 95.4765 15.2234C95.552 15.2783 95.6413 15.3108 95.7344 15.3175C95.8274 15.3241 95.9205 15.3045 96.003 15.261L99.5514 13.3953L103.1 15.261C103.197 15.3125 103.309 15.3297 103.417 15.311C103.689 15.2641 103.872 15.0063 103.825 14.7344L103.147 10.7828L106.017 7.98441C106.095 7.90784 106.147 7.80784 106.162 7.69847C106.205 7.42503 106.014 7.17191 105.74 7.13128Z" fill="#FF8906"/>
<path d="M120.396 15.168C119.855 15.168 119.351 15.0747 118.884 14.888C118.427 14.7013 118.026 14.4353 117.68 14.09C117.335 13.7447 117.074 13.334 116.896 12.858L117.75 12.438C117.965 12.9793 118.315 13.4087 118.8 13.726C119.295 14.034 119.827 14.188 120.396 14.188C120.854 14.188 121.26 14.0807 121.614 13.866C121.978 13.6513 122.263 13.362 122.468 12.998C122.674 12.6247 122.776 12.2093 122.776 11.752C122.776 11.276 122.669 10.856 122.454 10.492C122.249 10.128 121.969 9.84333 121.614 9.638C121.26 9.42333 120.858 9.316 120.41 9.316C119.953 9.316 119.528 9.42333 119.136 9.638C118.754 9.84333 118.474 10.0953 118.296 10.394L117.414 10.226L118.198 4.57H123.476V5.55H118.604L119.038 5.172L118.408 9.624L117.974 9.428C118.301 9.02667 118.684 8.742 119.122 8.574C119.561 8.39667 120.009 8.308 120.466 8.308C121.138 8.308 121.731 8.46667 122.244 8.784C122.758 9.092 123.159 9.50733 123.448 10.03C123.747 10.5433 123.896 11.1173 123.896 11.752C123.896 12.396 123.742 12.9793 123.434 13.502C123.136 14.0153 122.72 14.4213 122.188 14.72C121.666 15.0187 121.068 15.168 120.396 15.168ZM126.237 15V13.46H127.357V15H126.237ZM133.939 15.168C133.118 15.168 132.394 14.944 131.769 14.496C131.153 14.0387 130.672 13.4087 130.327 12.606C129.982 11.794 129.809 10.8513 129.809 9.778C129.809 8.70467 129.982 7.76667 130.327 6.964C130.672 6.152 131.153 5.522 131.769 5.074C132.385 4.626 133.104 4.402 133.925 4.402C134.746 4.402 135.465 4.626 136.081 5.074C136.697 5.522 137.178 6.152 137.523 6.964C137.868 7.76667 138.041 8.70467 138.041 9.778C138.041 10.8513 137.868 11.794 137.523 12.606C137.187 13.418 136.711 14.048 136.095 14.496C135.479 14.944 134.76 15.168 133.939 15.168ZM133.939 14.118C134.536 14.118 135.059 13.936 135.507 13.572C135.955 13.208 136.305 12.704 136.557 12.06C136.809 11.4067 136.935 10.646 136.935 9.778C136.935 8.91 136.809 8.154 136.557 7.51C136.305 6.85667 135.955 6.35267 135.507 5.998C135.059 5.634 134.532 5.452 133.925 5.452C133.328 5.452 132.805 5.634 132.357 5.998C131.909 6.35267 131.559 6.85667 131.307 7.51C131.055 8.154 130.929 8.91 130.929 9.778C130.929 10.6367 131.055 11.3927 131.307 12.046C131.559 12.6993 131.909 13.208 132.357 13.572C132.814 13.936 133.342 14.118 133.939 14.118Z" fill="#4F5665"/>
</svg>
