<svg width="219" height="20" viewBox="0 0 219 20" fill="none" xmlns="http://www.w3.org/2000/svg">
<path d="M12.8059 8.13128L8.83873 7.55472L7.06529 3.95941C7.01685 3.86097 6.93716 3.78128 6.83873 3.73284C6.59185 3.61097 6.29185 3.71253 6.16841 3.95941L4.39498 7.55472L0.427788 8.13128C0.318413 8.14691 0.218413 8.19847 0.141851 8.27659C0.0492908 8.37173 -0.00171392 8.49972 4.3978e-05 8.63244C0.00180188 8.76516 0.0561785 8.89176 0.151226 8.98441L3.02154 11.7828L2.34341 15.7344C2.32751 15.8263 2.33768 15.9209 2.37278 16.0073C2.40787 16.0937 2.46648 16.1686 2.54196 16.2234C2.61744 16.2783 2.70677 16.3108 2.79982 16.3175C2.89287 16.3241 2.98592 16.3045 3.06841 16.261L6.61685 14.3953L10.1653 16.261C10.2622 16.3125 10.3747 16.3297 10.4825 16.311C10.7544 16.2641 10.9372 16.0063 10.8903 15.7344L10.2122 11.7828L13.0825 8.98441C13.1606 8.90784 13.2122 8.80784 13.2278 8.69847C13.27 8.42503 13.0794 8.17191 12.8059 8.13128Z" fill="#FF8906"/>
<path d="M51.0396 8.13128L47.0724 7.55472L45.2989 3.95941C45.2505 3.86097 45.1708 3.78128 45.0724 3.73284C44.8255 3.61097 44.5255 3.71253 44.4021 3.95941L42.6286 7.55472L38.6614 8.13128C38.5521 8.14691 38.4521 8.19847 38.3755 8.27659C38.2829 8.37173 38.2319 8.49972 38.2337 8.63244C38.2354 8.76516 38.2898 8.89176 38.3849 8.98441L41.2552 11.7828L40.5771 15.7344C40.5612 15.8263 40.5713 15.9209 40.6064 16.0073C40.6415 16.0937 40.7001 16.1686 40.7756 16.2234C40.8511 16.2783 40.9404 16.3108 41.0335 16.3175C41.1265 16.3241 41.2196 16.3045 41.3021 16.261L44.8505 14.3953L48.3989 16.261C48.4958 16.3125 48.6083 16.3297 48.7161 16.311C48.988 16.2641 49.1708 16.0063 49.1239 15.7344L48.4458 11.7828L51.3161 8.98441C51.3942 8.90784 51.4458 8.80784 51.4614 8.69847C51.5036 8.42503 51.313 8.17191 51.0396 8.13128Z" fill="#FF8906"/>
<path d="M89.2732 8.13128L85.306 7.55472L83.5326 3.95941C83.4841 3.86097 83.4044 3.78128 83.306 3.73284C83.0591 3.61097 82.7591 3.71253 82.6357 3.95941L80.8623 7.55472L76.8951 8.13128C76.7857 8.14691 76.6857 8.19847 76.6091 8.27659C76.5166 8.37173 76.4656 8.49972 76.4673 8.63244C76.4691 8.76516 76.5235 8.89176 76.6185 8.98441L79.4888 11.7828L78.8107 15.7344C78.7948 15.8263 78.805 15.9209 78.8401 16.0073C78.8752 16.0937 78.9338 16.1686 79.0092 16.2234C79.0847 16.2783 79.1741 16.3108 79.2671 16.3175C79.3602 16.3241 79.4532 16.3045 79.5357 16.261L83.0841 14.3953L86.6326 16.261C86.7294 16.3125 86.8419 16.3297 86.9498 16.311C87.2216 16.2641 87.4044 16.0063 87.3576 15.7344L86.6794 11.7828L89.5498 8.98441C89.6279 8.90784 89.6794 8.80784 89.6951 8.69847C89.7373 8.42503 89.5466 8.17191 89.2732 8.13128Z" fill="#FF8906"/>
<path d="M127.507 8.13128L123.54 7.55472L121.766 3.95941C121.718 3.86097 121.638 3.78128 121.54 3.73284C121.293 3.61097 120.993 3.71253 120.869 3.95941L119.096 7.55472L115.129 8.13128C115.019 8.14691 114.919 8.19847 114.843 8.27659C114.75 8.37173 114.699 8.49972 114.701 8.63244C114.703 8.76516 114.757 8.89176 114.852 8.98441L117.722 11.7828L117.044 15.7344C117.028 15.8263 117.039 15.9209 117.074 16.0073C117.109 16.0937 117.167 16.1686 117.243 16.2234C117.318 16.2783 117.408 16.3108 117.501 16.3175C117.594 16.3241 117.687 16.3045 117.769 16.261L121.318 14.3953L124.866 16.261C124.963 16.3125 125.076 16.3297 125.183 16.311C125.455 16.2641 125.638 16.0063 125.591 15.7344L124.913 11.7828L127.783 8.98441C127.862 8.90784 127.913 8.80784 127.929 8.69847C127.971 8.42503 127.78 8.17191 127.507 8.13128Z" fill="#FF8906"/>
<path d="M165.74 8.13128L161.773 7.55472L160 3.95941C159.951 3.86097 159.872 3.78128 159.773 3.73284C159.526 3.61097 159.226 3.71253 159.103 3.95941L157.33 7.55472L153.362 8.13128C153.253 8.14691 153.153 8.19847 153.076 8.27659C152.984 8.37173 152.933 8.49972 152.935 8.63244C152.936 8.76516 152.991 8.89176 153.086 8.98441L155.956 11.7828L155.278 15.7344C155.262 15.8263 155.272 15.9209 155.307 16.0073C155.342 16.0937 155.401 16.1686 155.477 16.2234C155.552 16.2783 155.641 16.3108 155.734 16.3175C155.827 16.3241 155.92 16.3045 156.003 16.261L159.551 14.3953L163.1 16.261C163.197 16.3125 163.309 16.3297 163.417 16.311C163.689 16.2641 163.872 16.0063 163.825 15.7344L163.147 11.7828L166.017 8.98441C166.095 8.90784 166.147 8.80784 166.162 8.69847C166.205 8.42503 166.014 8.17191 165.74 8.13128Z" fill="#FF8906"/>
<path d="M196 17.192C195.382 17.192 194.806 17.0853 194.272 16.872C193.75 16.6587 193.291 16.3547 192.896 15.96C192.502 15.5653 192.203 15.096 192 14.552L192.976 14.072C193.222 14.6907 193.622 15.1813 194.176 15.544C194.742 15.896 195.35 16.072 196 16.072C196.523 16.072 196.987 15.9493 197.392 15.704C197.808 15.4587 198.134 15.128 198.368 14.712C198.603 14.2853 198.72 13.8107 198.72 13.288C198.72 12.744 198.598 12.264 198.352 11.848C198.118 11.432 197.798 11.1067 197.392 10.872C196.987 10.6267 196.528 10.504 196.016 10.504C195.494 10.504 195.008 10.6267 194.56 10.872C194.123 11.1067 193.803 11.3947 193.6 11.736L192.592 11.544L193.488 5.08H199.52V6.2H193.952L194.448 5.768L193.728 10.856L193.232 10.632C193.606 10.1733 194.043 9.848 194.544 9.656C195.046 9.45333 195.558 9.352 196.08 9.352C196.848 9.352 197.526 9.53333 198.112 9.896C198.699 10.248 199.158 10.7227 199.488 11.32C199.83 11.9067 200 12.5627 200 13.288C200 14.024 199.824 14.6907 199.472 15.288C199.131 15.8747 198.656 16.3387 198.048 16.68C197.451 17.0213 196.768 17.192 196 17.192ZM202.676 17V15.24H203.956V17H202.676ZM211.478 17.192C210.539 17.192 209.712 16.936 208.998 16.424C208.294 15.9013 207.744 15.1813 207.35 14.264C206.955 13.336 206.758 12.2587 206.758 11.032C206.758 9.80533 206.955 8.73333 207.35 7.816C207.744 6.888 208.294 6.168 208.998 5.656C209.702 5.144 210.523 4.888 211.462 4.888C212.4 4.888 213.222 5.144 213.926 5.656C214.63 6.168 215.179 6.888 215.574 7.816C215.968 8.73333 216.166 9.80533 216.166 11.032C216.166 12.2587 215.968 13.336 215.574 14.264C215.19 15.192 214.646 15.912 213.942 16.424C213.238 16.936 212.416 17.192 211.478 17.192ZM211.478 15.992C212.16 15.992 212.758 15.784 213.27 15.368C213.782 14.952 214.182 14.376 214.47 13.64C214.758 12.8933 214.902 12.024 214.902 11.032C214.902 10.04 214.758 9.176 214.47 8.44C214.182 7.69333 213.782 7.11733 213.27 6.712C212.758 6.296 212.155 6.088 211.462 6.088C210.779 6.088 210.182 6.296 209.67 6.712C209.158 7.11733 208.758 7.69333 208.47 8.44C208.182 9.176 208.038 10.04 208.038 11.032C208.038 12.0133 208.182 12.8773 208.47 13.624C208.758 14.3707 209.158 14.952 209.67 15.368C210.192 15.784 210.795 15.992 211.478 15.992Z" fill="white"/>
</svg>
