<svg width="16" height="16" viewBox="0 0 16 16" fill="none" xmlns="http://www.w3.org/2000/svg">
<path fill-rule="evenodd" clip-rule="evenodd" d="M7.12607 8.00005C7.12607 8.68205 6.57341 9.23471 5.8914 9.23471C5.2094 9.23471 4.65674 8.68205 4.65674 8.00005C4.65674 7.31805 5.2094 6.76538 5.8914 6.76538H5.8934C6.57474 6.76605 7.12607 7.31871 7.12607 8.00005Z" stroke="#4F5665" stroke-linecap="round" stroke-linejoin="round"/>
<path d="M7.12793 8H11.3399V9.23467" stroke="#4F5665" stroke-linecap="round" stroke-linejoin="round"/>
<path d="M9.45492 9.23467V8" stroke="#4F5665" stroke-linecap="round" stroke-linejoin="round"/>
<path fill-rule="evenodd" clip-rule="evenodd" d="M1.8335 7.99992C1.8335 3.37525 3.3755 1.83325 8.00016 1.83325C12.6248 1.83325 14.1668 3.37525 14.1668 7.99992C14.1668 12.6246 12.6248 14.1666 8.00016 14.1666C3.3755 14.1666 1.8335 12.6246 1.8335 7.99992Z" stroke="#4F5665" stroke-linecap="round" stroke-linejoin="round"/>
</svg>
