<svg width="48" height="13" viewBox="0 0 48 13" fill="none" xmlns="http://www.w3.org/2000/svg">
<path d="M-0.000124931 12.1121V0.19206H4.20788C4.99721 0.19206 5.69054 0.341393 6.28788 0.64006C6.88521 0.938727 7.34921 1.36539 7.67988 1.92006C8.02121 2.47473 8.19188 3.12539 8.19188 3.87206C8.19188 4.61873 8.02121 5.26939 7.67988 5.82406C7.34921 6.36806 6.88521 6.79473 6.28788 7.10406C5.70121 7.40273 5.00788 7.55206 4.20788 7.55206H1.56788V12.1121H-0.000124931ZM1.56788 6.11206H4.25588C4.73588 6.11206 5.15188 6.02139 5.50388 5.84006C5.85588 5.65873 6.12788 5.39739 6.31988 5.05606C6.51188 4.71473 6.60788 4.32006 6.60788 3.87206C6.60788 3.41339 6.51188 3.01873 6.31988 2.68806C6.12788 2.34673 5.85588 2.08539 5.50388 1.90406C5.15188 1.72273 4.73588 1.63206 4.25588 1.63206H1.56788V6.11206ZM10.1364 12.1121V6.00815e-05H11.6244V5.16806L11.3524 5.02406C11.5657 4.48006 11.907 4.05873 12.3764 3.76006C12.8564 3.45073 13.4164 3.29606 14.0564 3.29606C14.675 3.29606 15.2244 3.43473 15.7044 3.71206C16.195 3.98939 16.579 4.37339 16.8564 4.86406C17.1444 5.35473 17.2884 5.90939 17.2884 6.52806V12.1121H15.7844V7.00806C15.7844 6.52806 15.6937 6.12273 15.5124 5.79206C15.3417 5.46139 15.1017 5.20539 14.7924 5.02406C14.483 4.83206 14.1257 4.73606 13.7204 4.73606C13.3257 4.73606 12.9684 4.83206 12.6484 5.02406C12.3284 5.20539 12.0777 5.46673 11.8964 5.80806C11.715 6.13873 11.6244 6.53873 11.6244 7.00806V12.1121H10.1364ZM23.5136 12.3041C22.6816 12.3041 21.9296 12.1121 21.2576 11.7281C20.5856 11.3334 20.0523 10.7947 19.6576 10.1121C19.263 9.42939 19.0656 8.65606 19.0656 7.79206C19.0656 6.92806 19.2576 6.16006 19.6416 5.48806C20.0363 4.81606 20.5696 4.28273 21.2416 3.88806C21.9136 3.49339 22.671 3.29606 23.5136 3.29606C24.3456 3.29606 25.0976 3.49339 25.7696 3.88806C26.4416 4.27206 26.9696 4.80006 27.3536 5.47206C27.7483 6.14406 27.9456 6.91739 27.9456 7.79206C27.9456 8.66673 27.743 9.44539 27.3376 10.1281C26.9323 10.8001 26.3936 11.3334 25.7216 11.7281C25.0603 12.1121 24.3243 12.3041 23.5136 12.3041ZM23.5136 10.8641C24.047 10.8641 24.527 10.7307 24.9536 10.4641C25.391 10.1974 25.7323 9.82939 25.9776 9.36006C26.2336 8.89073 26.3616 8.36806 26.3616 7.79206C26.3616 7.20539 26.2336 6.68806 25.9776 6.24006C25.7323 5.78139 25.391 5.41873 24.9536 5.15206C24.527 4.87473 24.047 4.73606 23.5136 4.73606C22.9696 4.73606 22.479 4.87473 22.0416 5.15206C21.615 5.41873 21.2736 5.78139 21.0176 6.24006C20.7616 6.68806 20.6336 7.20539 20.6336 7.79206C20.6336 8.36806 20.7616 8.89073 21.0176 9.36006C21.2736 9.82939 21.615 10.1974 22.0416 10.4641C22.479 10.7307 22.9696 10.8641 23.5136 10.8641ZM29.8864 12.1121V3.48806H31.3424V5.16806L31.1024 5.02406C31.3157 4.48006 31.657 4.05873 32.1264 3.76006C32.6064 3.45073 33.1664 3.29606 33.8064 3.29606C34.425 3.29606 34.9744 3.43473 35.4544 3.71206C35.945 3.98939 36.329 4.37339 36.6064 4.86406C36.8944 5.35473 37.0384 5.90939 37.0384 6.52806V12.1121H35.5344V7.00806C35.5344 6.52806 35.449 6.12273 35.2784 5.79206C35.1077 5.46139 34.8624 5.20539 34.5424 5.02406C34.233 4.83206 33.8757 4.73606 33.4704 4.73606C33.065 4.73606 32.7024 4.83206 32.3824 5.02406C32.073 5.20539 31.8277 5.46673 31.6464 5.80806C31.465 6.13873 31.3744 6.53873 31.3744 7.00806V12.1121H29.8864ZM43.1356 12.3041C42.3036 12.3041 41.5623 12.1067 40.9116 11.7121C40.261 11.3174 39.749 10.7787 39.3756 10.0961C39.0023 9.40273 38.8156 8.62939 38.8156 7.77606C38.8156 6.91206 38.997 6.14406 39.3596 5.47206C39.733 4.80006 40.2343 4.27206 40.8636 3.88806C41.5036 3.49339 42.2183 3.29606 43.0076 3.29606C43.6476 3.29606 44.213 3.41339 44.7036 3.64806C45.205 3.87206 45.6263 4.18139 45.9676 4.57606C46.3196 4.96006 46.5863 5.40273 46.7676 5.90406C46.9596 6.39473 47.0556 6.90673 47.0556 7.44006C47.0556 7.55739 47.045 7.69073 47.0236 7.84006C47.013 7.97873 46.997 8.11206 46.9756 8.24006H39.9036V6.96006H46.1116L45.4076 7.53606C45.5036 6.98139 45.4503 6.48539 45.2476 6.04806C45.045 5.61073 44.7463 5.26406 44.3516 5.00806C43.957 4.75206 43.509 4.62406 43.0076 4.62406C42.5063 4.62406 42.0476 4.75206 41.6316 5.00806C41.2156 5.26406 40.8903 5.63206 40.6556 6.11206C40.4316 6.58139 40.341 7.14139 40.3836 7.79206C40.341 8.42139 40.437 8.97606 40.6716 9.45606C40.917 9.92539 41.2583 10.2934 41.6956 10.5601C42.1436 10.8161 42.629 10.9441 43.1516 10.9441C43.7276 10.9441 44.213 10.8107 44.6076 10.5441C45.0023 10.2774 45.3223 9.93606 45.5676 9.52006L46.8156 10.1601C46.645 10.5547 46.3783 10.9174 46.0156 11.2481C45.6636 11.5681 45.2423 11.8241 44.7516 12.0161C44.2716 12.2081 43.733 12.3041 43.1356 12.3041Z" fill="#4F5665"/>
</svg>
